# xmcd
#
# Track frame offsets: 
#        150
#        23268
#        40768
#        59668
#        76465
#        84900
#        106530
#        116500
#        138848
#        165425
#
# Disc length: 2345 seconds
#
# Revision: 2
# Processed by: cddbd v1.5PL3 Copyright (c) Steve Scherf et al.
# Submitted via: ExactAudioCopy v0.95a4
#
DISCID=6609270a
DTITLE=César Camargo Mariano and Hélio Delmiro - Samambaia
DYEAR=1981
DGENRE=Jazz
TTITLE0=Samambaia
TTITLE1=Carinhoso
TTITLE2=Emotiva nº 4
TTITLE3=Curumim
TTITLE4=Das Cordas
TTITLE5=Milagre Dos Peixes
TTITLE6=Choratta
TTITLE7=No Rancho Fundo
TTITLE8=Ninhos
TTITLE9=Maria Rita
EXTD=
EXTT0=
EXTT1=
EXTT2=
EXTT3=
EXTT4=
EXTT5=
EXTT6=
EXTT7=
EXTT8=
EXTT9=
PLAYORDER=
